<?xml version="1.0" encoding="utf-8"?>
<!DOCTYPE svg PUBLIC "-//W3C//DTD SVG 1.0//EN" "http://www.w3.org/TR/2001/REC-SVG-20010904/DTD/svg10.dtd">
<svg version="1.0" xmlns="http://www.w3.org/2000/svg" width="1024px" height="1024px" viewBox="0 0 1024 1024" preserveAspectRatio="xMidYMid meet">
 <g fill="#000000">
  <path d="M288.6 843.8 c-0.8 -1.8 -2.6 -7.2 -4.2 -12 l-2.8 -8.8 -3.6 10.3 c-2 5.7 -4 10.9 -4.4 11.5 -0.4 0.7 -3.1 1.2 -6.5 1.2 l-5.9 0 -5.8 -16.7 c-7.1 -20.7 -9 -25.2 -11.5 -27.9 -1.5 -1.6 -1.9 -3.2 -1.7 -6 l0.3 -3.9 10.5 0 10.5 0 0.3 3.9 c0.2 2.1 -0.1 4.3 -0.7 4.9 -0.6 0.6 0.3 4.5 2.7 11.3 l3.6 10.4 2.8 -7.3 c3.3 -8.8 3.4 -10.1 0.7 -12.8 -1.5 -1.5 -1.9 -3 -1.7 -6.2 l0.3 -4.2 10.4 -0.3 10.3 -0.3 -0.4 6.3 c-0.4 5.2 0.1 7.9 2.6 15.6 l3.2 9.3 2.9 -8.8 c2 -6 2.9 -10.8 3 -15.3 l0 -6.5 8.5 0 c8.5 0 8.5 0 8.8 2.7 l0.3 2.7 3.6 -2.4 c4.5 -3.1 8.2 -3.8 19.1 -3.4 7.6 0.4 9.4 0.8 13 3.1 l4.1 2.7 0.3 -2.7 0.3 -2.7 15.5 0 c14.6 0 15.8 0.1 20.7 2.6 l5.2 2.5 0.3 -2.5 0.3 -2.6 10.5 0 10.5 0 0.3 4.2 c0.2 3.2 -0.2 4.7 -1.7 6.2 -1.2 1.2 -2.1 3.3 -2.1 4.8 0 2.7 0.1 2.6 5 -2.2 4.1 -4 5 -5.5 5.2 -8.9 l0.3 -4.1 9.4 -0.3 c10.4 -0.3 11.1 0 11.1 5.5 0 2.6 -0.7 3.5 -4.3 5.6 -8.2 4.9 -8.3 5.1 -3.6 15.3 7.1 15.6 7.8 16.9 10 18.2 1.8 1.1 2.4 1.1 3.9 -0.3 1.5 -1.4 1.9 -4.1 2.5 -17.1 0.7 -13.8 0.6 -15.7 -0.9 -17.3 -1.2 -1.3 -1.6 -3.2 -1.4 -5.8 l0.3 -3.8 8.4 0 8.4 0 5.5 13.3 c3.1 7.2 5.9 13.2 6.2 13.2 0.4 0 3.4 -6 6.7 -13.2 l6.1 -13.3 8.4 0 8.3 0 0.3 4.1 c0.2 2.7 -0.2 4.5 -1.3 5.4 -1.2 1 -1.5 3.9 -1.5 16 0 8 0.3 15 0.7 15.4 0.4 0.3 3.4 -6 6.7 -14.1 5.3 -13.3 5.9 -15.5 5.7 -21.1 l-0.2 -6.3 8.3 0.3 8.3 0.3 8 20.4 8 20.3 0.3 -14.2 c0.2 -13.4 0.1 -14.5 -1.8 -16.5 -1.6 -1.7 -2.1 -3.3 -1.8 -6.1 l0.3 -3.9 7.1 -0.3 c8.3 -0.3 6.3 -1.8 21.1 15.5 l10.8 12.6 0.3 -7.8 c0.3 -6.8 0 -8.1 -1.8 -10 -1.6 -1.7 -2.1 -3.3 -1.8 -6.1 l0.3 -3.9 8.5 0 8.5 0 0.3 3.8 c0.2 2.6 -0.3 4.5 -1.7 6.3 -1.9 2.4 -2.1 4 -2.1 17.3 l0.1 14.6 6.1 -15 c5.5 -13.5 6.1 -15.6 5.9 -21.3 l-0.2 -6.3 8.2 0.3 8.3 0.3 6.1 15.4 6.2 15.3 0.7 -6.3 c1.2 -11.6 7.5 -20.7 16.5 -23.7 1.9 -0.7 9.2 -1.2 16.3 -1.2 12.3 0 12.9 0.1 13.7 2.2 l0.8 2.2 0.6 -2.3 0.5 -2.2 34.4 0.3 34.3 0.3 4.9 2.5 c7 3.5 9 6.6 9.4 15 0.5 8.5 -0.1 11 -3.3 14.9 l-2.6 3 2.4 3.8 c1.3 2.1 3.2 4.4 4.1 5.2 1 0.9 1.6 2.9 1.6 5.8 l0 4.4 -10.2 -0.3 -10.3 -0.3 -0.1 -5.1 c-0.2 -6.6 -2.6 -10.4 -6.6 -10.4 -2.6 0 -2.9 0.3 -2.2 2.3 0.3 1.2 1.3 2.9 2.1 3.9 0.9 1 1.3 3.1 1.1 5.5 l-0.3 3.8 -29.3 0.3 c-28.7 0.2 -29.4 0.2 -29.9 -1.8 -0.6 -2.1 -1.8 -2.6 -2.7 -1.1 -0.3 0.5 -3.5 1.7 -7.1 2.6 -8.6 2.4 -19.9 1.5 -26.1 -1.9 l-4.3 -2.4 -0.3 2.2 c-0.3 2 -0.8 2.1 -10.8 2.1 l-10.5 0 -0.3 -3.9 c-0.2 -2.1 0.1 -4.3 0.7 -4.9 0.7 -0.7 0.7 -1.6 0 -2.9 -0.8 -1.5 -2.2 -1.8 -7.4 -1.8 -3.9 0 -6.7 0.5 -7.1 1.2 -0.4 0.7 -0.8 3.7 -0.8 6.8 l-0.1 5.5 -10.4 0.3 c-12.2 0.3 -10 1.7 -25.5 -16.3 l-11.1 -12.9 -0.3 8.8 c-0.2 7 0.1 9.2 1.3 10.6 1.1 1.2 1.5 3.2 1.3 5.7 l-0.3 3.8 -15.5 0 -15.5 0 -0.3 -3.9 c-0.2 -2.1 0.1 -4.3 0.7 -4.9 0.7 -0.7 0.7 -1.6 0 -2.9 -0.8 -1.5 -2.2 -1.8 -7.4 -1.8 -3.9 0 -6.7 0.5 -7.1 1.2 -0.4 0.7 -0.8 3.7 -0.8 6.8 l-0.1 5.5 -15.2 0.3 -15.3 0.3 0 -5 c0 -3.1 0.5 -5.3 1.5 -6.1 1.1 -0.9 1.5 -3.2 1.5 -7.9 l-0.1 -6.6 -4.4 9.5 c-6.2 13.3 -5.6 12.5 -11.1 12.5 l-4.8 0 -4 -9.9 -4.1 -9.8 -0.8 5.3 c-0.6 4.6 -0.5 5.7 1.3 8.2 1.4 1.8 2 3.9 1.8 6 l-0.3 3.2 -19.5 0 -19.5 0 -0.1 -5 c0 -5.5 -0.5 -7.1 -4.1 -15.2 l-2.4 -5.6 -3.5 3.4 c-4 3.9 -4.5 8.2 -1.3 12.3 1.4 1.8 1.9 3.7 1.7 6.3 l-0.3 3.8 -18 0 -18 0 -0.1 -5.1 c-0.2 -6.6 -2.6 -10.4 -6.6 -10.4 -2.6 0 -2.9 0.3 -2.2 2.3 0.3 1.2 1.3 2.9 2.1 3.9 0.9 1 1.3 3.1 1.1 5.5 l-0.3 3.8 -10.5 0 -10.5 0 -0.3 -3.7 -0.3 -3.7 -4.4 3.4 c-5.4 4.1 -13.5 6 -22.2 5.2 -13.8 -1.3 -21.1 -9 -22.1 -23.2 l-0.5 -7 -4.7 14 c-5.1 15.3 -6 16.5 -13.3 16.5 -3.4 0 -4 -0.4 -5.1 -3.2z m58.1 -10.5 c9 -5.9 5.7 -25.1 -5.3 -30.6 -2.8 -1.5 -3.4 -1.4 -6.5 0.1 -7.4 3.7 -10 13.2 -5.9 21.7 2.5 5.3 3.8 6.8 8 9.4 3.6 2.1 5.6 2 9.7 -0.6z m335 0.5 c2.5 -2.1 1.5 -5.8 -2.3 -8 -3.1 -1.8 -3.5 -2.5 -3.2 -5.7 l0.3 -3.6 11.3 -0.3 11.2 -0.3 0 -6.3 c0 -4.7 -0.4 -6.7 -1.7 -7.9 -1.7 -1.5 -1.8 -1.2 -1.5 4.4 l0.4 5.9 -4.5 0 c-4.1 0 -4.8 -0.4 -8 -4.4 -4.8 -5.8 -8.4 -7.3 -12.9 -5.2 -8.5 4.1 -11 15.9 -5.3 25.1 4.6 7.4 11.6 10.1 16.2 6.3z m45.5 -2.3 c2.7 -3.8 3.7 -4.5 6.5 -4.5 l3.3 0 0 -8.4 0 -8.4 -4 -0.4 -4 -0.4 0 8.8 0 8.8 -4.2 0 c-3.4 0 -4.7 -0.5 -6.4 -2.7 -2.8 -3.4 -4.3 -2.3 -5.1 3.4 -0.8 6.1 0.9 8.3 6.3 8.3 4.1 0 4.7 -0.3 7.6 -4.5z m-320.2 -6.5 c-0.1 -5.3 -0.3 -6.1 -1.2 -4.5 -0.6 1.1 -1.9 3 -3 4.1 -1.9 2.1 -1.9 2.2 0.3 5.8 2.8 4.8 3.9 3.3 3.9 -5.4z m291.7 2.8 c-0.2 -1.3 -0.4 -0.3 -0.4 2.2 0 2.5 0.2 3.5 0.4 2.3 0.2 -1.3 0.2 -3.3 0 -4.5z m-160.7 -6.2 c0 -0.1 -0.5 -1.8 -1.1 -3.6 -1.2 -3.4 -1.9 -3 -3.3 1.8 -0.6 1.9 -0.4 2.2 1.8 2.2 1.4 0 2.6 -0.2 2.6 -0.4z m91 0 c0 -0.1 -0.5 -1.8 -1.1 -3.6 -1.2 -3.4 -1.9 -3 -3.3 1.8 -0.6 1.9 -0.4 2.2 1.8 2.2 1.4 0 2.6 -0.2 2.6 -0.4z m-239.3 -4.8 c2.8 -2.6 2.9 -5.3 0.3 -9.6 -2 -3.3 -8.2 -6.8 -10 -5.7 -1.5 0.9 -1.3 17.2 0.3 17.9 2.2 0.9 7 -0.4 9.4 -2.6z m372 0 c2.8 -2.6 2.9 -5.3 0.3 -9.6 -2 -3.3 -8.2 -6.8 -10 -5.7 -1.5 0.9 -1.3 17.2 0.3 17.9 2.2 0.9 7 -0.4 9.4 -2.6z m-43.3 -6.4 c0.9 -0.8 1.6 -2 1.6 -2.5 0 -0.5 1.9 -0.9 4.2 -0.9 l4.1 0 -2.3 -2.4 c-4.2 -4.6 -11.5 -4.6 -12.6 0 -0.7 2.7 0.9 7.4 2.5 7.4 0.5 0 1.7 -0.7 2.5 -1.6z"/>
  <path d="M100 505.5 l0 -286.5 18 0 18 0 0.2 88.6 0.3 88.6 3.3 -7.9 c1.9 -4.3 6.1 -12.7 9.4 -18.8 27.7 -50.3 66.2 -84.2 113.4 -100 16.5 -5.5 30.3 -7.5 52.2 -7.5 26.8 0 41.2 2.7 63.8 11.7 56.6 22.8 102.4 77.7 123.7 148.3 1.9 6.3 4.3 15.4 5.3 20.2 l1.8 8.8 2.4 -10.8 c8.1 -37.1 28.1 -79.2 51.3 -107.9 18.6 -23.1 44.9 -44 69.4 -55.4 11.8 -5.4 31.7 -11.5 44.1 -13.4 15 -2.4 49.7 -1.6 62.9 1.3 53.9 12.2 98.3 47.7 129.7 103.8 16.7 29.7 29.5 70.9 32.8 105.4 0.6 6.3 1.5 13.5 2.1 16 1.2 5.8 -0.5 49.2 -2.6 64.8 -3.8 28.7 -10.5 52.9 -22.1 79.8 -4.1 9.5 -7.4 17.9 -7.4 18.7 0 2.5 -8.1 18.2 -11.8 22.7 -4 5 -16.3 17.9 -32.2 33.8 -25.4 25.5 -54 41.4 -88.5 49.3 -11.4 2.6 -46.9 3.8 -59.7 2 -63.4 -9 -117.7 -54 -150.2 -124.1 -6 -13 -14.7 -38.9 -17.8 -53.2 l-2.4 -10.8 -1.8 8.8 c-4 19.5 -13.1 45.3 -22.6 64.2 -31.8 63.5 -83.4 104.9 -142.5 114.5 -12.4 2 -42.7 2 -55.9 -0.1 -41.2 -6.5 -81.4 -30.7 -111.1 -66.9 -14.3 -17.4 -27.3 -38.4 -35.1 -56.5 l-3.9 -9.2 -0.3 82.1 -0.2 82.1 -18 0 -18 0 0 -286.5z m237.3 227.5 c18.9 -3.6 38.3 -11.6 54.2 -22.1 l8 -5.3 -6.8 -0.8 c-27.9 -3.3 -52.6 -23.6 -61.4 -50.5 -2.1 -6.4 -2.7 -10.4 -3.1 -21.9 -0.6 -17.7 1 -26 7.6 -39.4 3.9 -8 6.1 -11 13.7 -18.6 8 -8.1 10.2 -9.7 19.5 -14.2 13.1 -6.3 17.6 -7.2 35.4 -7.2 15.9 0 25.2 1.8 34.8 6.6 14.9 7.5 24.9 17.2 32.9 31.7 l2.6 4.8 3.2 -12.1 c4 -14.9 6.5 -28.1 8.2 -42 1.4 -10.8 1.9 -47.3 0.8 -48.5 -0.4 -0.3 -8.7 -0.1 -18.5 0.4 -114.9 7 -176.6 31.6 -179.2 71.5 -1 16.2 8.3 37.2 28.5 64.3 10.8 14.5 10.8 14.9 0.6 23.1 -6.3 5.1 -8.3 6.2 -11.4 6.2 -3.4 0 -4.2 -0.6 -8.6 -6.3 -17.5 -22.2 -29.8 -45.3 -34.4 -64.4 -2.8 -11.5 -3 -30.7 -0.5 -40.3 8.6 -32 39.2 -53.6 95.7 -67.5 26.1 -6.4 55.6 -10.3 98.9 -13.2 14 -0.9 25.6 -1.7 25.7 -1.8 0.5 -0.2 -4.9 -23.1 -7.7 -32.3 -25.4 -85.1 -91.4 -144.2 -161 -144.2 -61.8 0 -121.5 46.4 -151.8 118 -29.1 68.8 -28.1 148.1 2.7 216 11.9 26.2 24.7 44.7 45 65.1 24.3 24.2 49 38 79.6 44.5 14.6 3 32.3 3.2 46.8 0.4z m388.9 0 c19.1 -3.7 37.9 -11.4 54.6 -22.2 l8.3 -5.4 -6.8 -1.3 c-17.2 -3.2 -34.6 -13.8 -44.9 -27.4 -11.4 -15 -16 -30.9 -15.1 -52.2 0.9 -21.9 6.7 -35.4 21.7 -50.5 9.6 -9.7 19.3 -15.4 32 -18.9 10.7 -3 34.3 -3 45 0 15.9 4.4 33 16.5 41.1 29 2.2 3.5 3.4 4.7 3.9 3.7 3.1 -5.6 9.3 -41.1 10.5 -60 0.7 -10.7 0.7 -10.7 -1.6 -11.2 -1.3 -0.3 -16.8 -2.1 -34.4 -4 -111 -12.2 -197.9 -18.5 -277.7 -20.3 l-30.6 -0.6 -0.7 6.9 c-1.1 9.9 0.1 35.2 2.5 51.7 11.2 77 52.9 141.7 109.5 169.6 28.2 13.9 55.9 18.3 82.7 13.1z m-279.1 -71.5 c3.8 -2.5 6.9 -7.7 6.9 -11.7 0 -4.3 -4.2 -10 -9.2 -12.6 l-4.8 -2.5 -5.3 2.7 c-5.5 2.7 -9.7 8.1 -9.7 12.5 0 3 2.2 7.1 5.7 10.3 5.5 5.3 9.8 5.6 16.4 1.3z m391.4 1.6 c6.9 -3.2 11.4 -10.6 9.5 -15.7 -1.9 -4.8 -4.9 -8.2 -9.4 -10.4 -4.2 -2 -4.6 -2 -8.3 -0.5 -8.1 3.4 -12.5 10.5 -10.4 16.8 1.3 3.8 5.1 7.8 9.6 10.1 3.7 2 4.1 2 9 -0.3z m37.5 -175.3 c0 -4.5 -4.5 -30.3 -6.9 -40.3 -11.4 -46.1 -32.8 -84.7 -63.3 -114 -29.8 -28.6 -66.1 -44.5 -101.8 -44.5 -49.4 0 -98.5 30 -131.6 80.5 -16.1 24.6 -29.3 56.8 -35.3 86 l-1.8 9 28.1 0.7 c82.2 1.9 156.3 6.9 256.1 17.3 27.3 2.9 48.1 5.2 55.8 6.4 0.4 0 0.7 -0.5 0.7 -1.1z"/>
 </g>
 <g fill="#ffffff">
  <path d="M0 512 l0 -512 512 0 512 0 0 512 0 512 -512 0 -512 0 0 -512z m298.6 329.6 c0.7 -0.6 3.8 -9 6.9 -18.6 6.5 -19.6 7.8 -22.8 10.8 -25.1 2.9 -2.4 1.3 -3.9 -4.3 -3.9 -5 0 -7.1 1.3 -5.1 3.3 0.6 0.6 1.1 2 1.1 3.2 0 1.9 -9.5 31.3 -10.4 32.2 -0.2 0.3 -2.8 -6.8 -5.7 -15.6 -4.5 -13.7 -5.2 -16.4 -4.1 -18.1 2.6 -4.2 1.7 -5 -5.8 -5 -7.9 0 -9.6 1.4 -6.1 4.9 3.8 3.8 3.6 6.3 -1.6 21 l-4.9 14 -5.6 -16.7 c-5.4 -15.5 -5.6 -16.8 -4.2 -18.9 0.8 -1.3 1.2 -2.8 0.9 -3.3 -0.8 -1.4 -14.2 -1.3 -15 0.1 -0.4 0.6 0.2 2 1.3 3.2 2.6 2.8 4.5 7.3 11.6 28 5.8 16.5 5.9 16.7 8.8 16.7 3.4 0 4.2 -1.6 10.2 -19.7 2.1 -6.2 3.9 -11.3 4.1 -11.3 0.2 0 2.5 6.4 5.1 14.3 5.9 17.8 6 18 8.7 17.1 1.2 -0.3 2.7 -1.1 3.3 -1.8z m49.9 0 c4.9 -2.1 10.1 -7.2 12.6 -12.4 3.4 -6.8 3.3 -17.1 -0.2 -23.8 -3.8 -7.3 -9.2 -10.7 -18 -11.2 -16.2 -1 -27.3 9.7 -27.3 26.3 0 11.9 5.9 19.7 16.9 22.6 3.8 1 11.8 0.2 16 -1.5z m334.5 0.8 c3.1 -0.9 7 -2.6 8.5 -3.8 2.5 -2 2.9 -3.1 3.3 -8.7 0.2 -3.5 0.8 -6.8 1.3 -7.3 0.5 -0.6 0.9 -1.6 0.9 -2.3 0 -1.5 -16.5 -1.9 -17.4 -0.4 -0.3 0.5 1 1.8 2.8 2.9 6 3.5 6 13 0 15.2 -7.4 2.9 -15.3 -0.1 -19.9 -7.5 -2.7 -4.4 -3 -5.6 -3 -13.5 0 -7.6 0.3 -9.1 2.5 -12.3 2.9 -4.3 7.4 -6.7 12.5 -6.7 4.8 0 8.6 2.1 12.5 7 4.6 5.8 6.4 5.4 5.5 -1.2 -1.4 -9.8 -1.1 -9.6 -12.1 -9.7 -5.4 -0.1 -11.4 0.4 -13.3 1 -9.7 3.2 -16.5 13.4 -16.3 24.4 0.2 17.8 14.4 27.9 32.2 22.9z m-303.5 -0.5 c0.4 -0.5 -0.1 -1.9 -1 -3 -1 -1 -2 -4.1 -2.3 -6.9 l-0.5 -5.1 6.3 0.3 6.3 0.3 2.6 4.7 c2.2 4.1 2.4 5 1.3 6.8 -0.7 1.1 -1 2.5 -0.7 3 0.8 1.3 29.2 1.3 30 0 0.3 -0.6 -0.3 -2.2 -1.4 -3.6 -1.6 -2.1 -2.1 -4.1 -2.1 -8.8 0 -6.1 0 -6.2 5.4 -11.5 6.2 -6.2 5.1 -6.9 11.6 7.9 4.2 9.9 4.7 11.9 2.9 13.7 -0.6 0.6 -0.8 1.6 -0.5 2.2 0.9 1.4 14.3 1.4 15.1 0 0.4 -0.6 -0.5 -2.3 -2 -3.8 -1.5 -1.5 -5.6 -9 -9 -16.6 l-6.3 -14 2.6 -2.8 c1.5 -1.6 4.6 -4 6.9 -5.4 6 -3.5 4.9 -5.3 -3.2 -5.3 -6.9 0 -8.2 0.8 -6.3 4 1.2 1.8 0.5 2.7 -7.2 10.5 -4.6 4.7 -8.8 8.5 -9.2 8.5 -0.5 0 -0.8 -3.6 -0.8 -8 0 -6.8 0.3 -8.3 2.1 -10.1 3.5 -3.5 1.8 -4.9 -6.1 -4.9 -8.2 0 -9.4 1.2 -6 5.8 2 2.7 2.1 3.8 1.8 20 -0.3 14.6 -0.6 17.4 -2 18.9 -1.7 1.6 -1.9 1.6 -4 -0.5 -1.3 -1.1 -3.6 -4.5 -5.3 -7.5 l-2.9 -5.5 3.1 -2.6 c4.1 -3.4 5.7 -7.6 5 -13.2 -0.6 -6 -3.1 -9.3 -9.2 -12.4 -4.2 -2.1 -6.7 -2.5 -17.2 -2.8 -10.4 -0.4 -12.4 -0.2 -12.9 1.1 -0.3 0.9 0.3 2.4 1.5 3.6 2 2 2.1 3.2 2.1 19.5 0 16 -0.2 17.5 -2.1 20 -1.1 1.4 -1.7 3 -1.4 3.6 0.8 1.3 14.2 1.3 15 -0.1z m90.8 0.5 c0.3 -0.4 -0.3 -1.8 -1.3 -3.3 -1.9 -2.4 -1.9 -3.7 -1.2 -18.1 l0.7 -15.5 7 16.9 c3.8 9.3 7.6 17.1 8.3 17.4 2.1 0.8 3.4 -1.3 10.7 -17.3 3.7 -8.2 7.2 -15.4 7.6 -15.9 0.5 -0.6 0.9 5.9 0.9 14.6 0 12.6 -0.3 15.8 -1.5 16.8 -0.8 0.7 -1.5 2.1 -1.5 3.1 0 1.8 0.9 1.9 11.9 1.9 6.6 0 12.2 -0.4 12.6 -1 0.3 -0.5 0 -1.8 -0.6 -2.9 -1 -1.5 -1 -2.7 0.2 -5.7 l1.5 -3.9 9.9 0 9.9 0 1.4 3.8 c1.3 3.4 1.3 3.9 -0.3 5.7 -3 3.3 -1 4 11.5 4 12.4 0 14.5 -0.7 11.6 -3.9 -1.4 -1.5 -1.6 -4.1 -1.4 -17.1 l0.3 -15.4 11.9 14 c14.8 17.3 19.7 22.4 21.3 22.4 1 0 1.3 -4.5 1.3 -20.9 0 -19.5 0.1 -21 2.1 -23.5 2.7 -3.5 1.7 -4.6 -4.1 -4.6 -5.8 0 -7 1.3 -4.1 4.4 2 2.2 2.1 3.2 1.9 16.6 l-0.3 14.3 -13.8 -16.1 c-17.4 -20.4 -16.1 -19.2 -20.7 -19.2 -4.8 0 -5.8 1.5 -3.1 4.4 2 2.1 2.1 3.3 2.1 20.8 0 14.3 -0.3 18.8 -1.3 19.7 -2.4 1.9 -4.3 -1.6 -13 -23.5 l-8.2 -20.9 -5.3 -0.3 c-5.6 -0.3 -6.5 0.7 -4 4.8 1 1.6 0.2 4.5 -5.6 19.2 -3.8 9.5 -7.7 18.2 -8.7 19.3 -1.8 1.8 -2 1.9 -3.6 0.2 -1.5 -1.5 -1.9 -4.5 -2.4 -19 -0.6 -16.1 -0.6 -17.4 1.3 -20 2.6 -3.7 1.4 -4.9 -4.7 -4.5 l-4.7 0.3 -7.7 16.8 c-4.1 9.2 -7.8 16.7 -8.2 16.7 -0.3 0 -3.7 -7.5 -7.6 -16.7 l-7 -16.8 -4.8 -0.3 c-5.8 -0.4 -7.6 0.9 -5 3.8 1.7 1.8 1.8 3.4 1.1 20.2 -0.6 16.5 -0.9 18.5 -2.8 20.5 -1.1 1.2 -1.7 2.6 -1.3 3.2 0.7 1.2 9.7 1.5 10.8 0.5z m145.2 -0.4 c0.3 -0.5 0 -1.8 -0.6 -2.9 -1 -1.5 -1 -2.7 0.2 -5.7 l1.5 -3.9 9.9 0 9.9 0 1.4 3.8 c1.3 3.4 1.3 3.9 -0.3 5.7 -2.7 2.9 -1 4 6.5 4 7.7 0 9.2 -1.1 6.1 -4.4 -1.2 -1.2 -5.8 -11.6 -10.4 -23.2 l-8.2 -20.9 -5.3 -0.3 c-5.6 -0.3 -6.5 0.7 -4 4.8 1 1.6 0.2 4.5 -5.6 19.2 -4.4 11 -7.9 18.4 -9.8 20.4 -1.5 1.7 -2.5 3.3 -2.2 3.7 1.1 1.1 10.2 0.8 10.9 -0.3z m118.3 -0.3 c0.6 -0.7 1.4 -3.6 1.8 -6.5 0.9 -6.7 -1 -7 -5.4 -0.7 l-3.2 4.5 -7.4 0 c-8.9 0 -9.6 -0.7 -9.6 -9.4 0 -8.5 1.2 -10.6 6 -10.6 3.1 0 4.3 0.5 5.6 2.5 3 4.6 4.4 3.2 4.4 -4.5 0 -5.6 -0.3 -7 -1.5 -7 -0.8 0 -1.5 0.4 -1.5 0.9 0 2.2 -3.4 4.1 -7 4.1 -4.8 0 -6 -1.8 -6 -8.9 0 -7.1 1.6 -8.4 9.8 -7.9 6.2 0.4 6.7 0.6 10.1 4.6 2 2.3 4 4.2 4.4 4.2 2.1 0 -0.2 -10.7 -2.6 -12.2 -1.9 -1.2 -32.5 -1 -33.2 0.3 -0.4 0.6 0.2 2.1 1.4 3.3 2 2.1 2.1 3.3 2.1 20.4 0 17.1 -0.1 18.2 -2.1 20.1 -1.2 1.1 -1.8 2.4 -1.4 3 1 1.7 33.9 1.5 35.3 -0.2z m17.7 0.2 c0.4 -0.5 -0.1 -1.9 -1 -3 -1 -1 -2 -4.1 -2.3 -6.9 l-0.5 -5.1 6.3 0.3 6.3 0.3 2.6 4.7 c2.2 4.1 2.4 5 1.3 6.8 -2 3.2 -0.6 4 6.9 4 7.6 0 8.6 -1 4.6 -4.8 -1.2 -1.1 -3.5 -4.5 -5.2 -7.5 l-2.9 -5.5 3.1 -2.6 c4.1 -3.4 5.7 -7.6 5 -13.2 -0.6 -6 -3.1 -9.3 -9.2 -12.4 -4.2 -2.1 -6.7 -2.5 -17.2 -2.8 -10.4 -0.4 -12.4 -0.2 -12.9 1.1 -0.3 0.9 0.3 2.4 1.5 3.6 2 2 2.1 3.2 2.1 19.5 0 16 -0.2 17.5 -2.1 20 -1.1 1.4 -1.7 3 -1.4 3.6 0.8 1.3 14.2 1.3 15 -0.1z m-618.5 -143.1 l0.1 -90.3 4.3 11 c11.4 28.8 23.2 49.2 41.1 71 29.7 36.2 69.9 60.4 111.1 66.9 12.9 2 37.8 2.1 49.9 0.1 59 -9.6 110.7 -51.1 142.4 -114.2 12.5 -25 23.7 -60.8 26.7 -85.8 l0.7 -6 1.9 11 c8.6 50.9 28.9 96 59.3 131.4 30.7 35.7 70.1 58.2 112.4 64.2 12.2 1.7 42.1 0.6 53.6 -2 34.3 -7.8 63.1 -23.8 88.5 -49.3 15.9 -15.9 28.2 -28.8 32.2 -33.8 3.7 -4.5 11.8 -20.2 11.8 -22.7 0 -0.8 3.3 -9.2 7.4 -18.7 11.6 -26.9 18.3 -51.1 22.1 -79.8 1.9 -14.2 3.6 -54.6 2.5 -59 -0.5 -1.8 -1.4 -8.6 -2 -15.1 -6.4 -70.4 -43.3 -140.5 -93.5 -177.7 -22.4 -16.7 -43.5 -26.4 -69 -32.1 -13.3 -3 -42.3 -3.7 -56.9 -1.4 -19.6 3 -42.8 11.6 -60.1 22 -54.4 32.8 -93.2 93.5 -107.5 167.9 -1.1 6.1 -2.2 11.2 -2.5 11.4 -0.5 0.5 -0.4 0.9 -4 -17.8 -15.8 -80.3 -66.3 -147.7 -129.9 -173.3 -21.7 -8.7 -37.2 -11.7 -60.8 -11.7 -18.7 0 -33.5 2.3 -49.2 7.5 -46.9 15.7 -85.2 49.3 -112.9 99.1 -6.3 11.3 -7.9 14.6 -14.8 31.9 l-4.9 12 0 -96.7 0 -96.8 -15 0 -15 0 0 283.5 0 283.5 15 0 15 0 0 -90.2z"/>
  <path d="M334 836.9 c-6.7 -4.1 -10.2 -11.2 -10.4 -20.9 -0.4 -21.1 22.7 -24.6 30.4 -4.5 2.1 5.2 1.8 15.5 -0.6 19.9 -3.7 7.2 -12.5 9.6 -19.4 5.5z"/>
  <path d="M377.2 822.2 c-0.9 -0.6 -1.2 -3.8 -1 -12.3 l0.3 -11.4 4 -0.3 c8.3 -0.5 14.8 5.8 14.8 14.5 0 6.5 -3.3 9.5 -11 10 -3.2 0.2 -6.4 0 -7.1 -0.5z"/>
  <path d="M528 824 c0 -1.2 7.1 -19 7.5 -19 0.4 0 7.5 18.2 7.5 19.3 0 0.4 -3.4 0.7 -7.5 0.7 -4.3 0 -7.5 -0.4 -7.5 -1z"/>
  <path d="M619 824 c0 -1.2 7.1 -19 7.5 -19 0.4 0 7.5 18.2 7.5 19.3 0 0.4 -3.4 0.7 -7.5 0.7 -4.3 0 -7.5 -0.4 -7.5 -1z"/>
  <path d="M749.2 822.2 c-0.9 -0.6 -1.2 -3.8 -1 -12.3 l0.3 -11.4 4 -0.3 c8.3 -0.5 14.8 5.8 14.8 14.5 0 6.5 -3.3 9.5 -11 10 -3.2 0.2 -6.4 0 -7.1 -0.5z"/>
  <path d="M287.5 735.6 c-20 -4.3 -36.2 -11.2 -54.5 -23.3 -13.5 -9 -34.6 -29.4 -45.2 -43.6 -60.3 -81.2 -65.4 -207.2 -12.1 -295.2 23.9 -39.4 58.4 -68.6 95.6 -80.9 27.4 -9 60.6 -9 87.8 0.3 62.1 21 110.2 83.2 126.3 163 1.4 6.9 2.4 12.6 2.3 12.6 -0.1 0.1 -12.1 0.9 -26.7 1.9 -43.7 2.8 -72.5 6.6 -98.9 13.1 -65.7 16.1 -97.4 43.3 -97.3 83.6 0.1 20.4 8.1 41.7 25.5 67.4 7.2 10.7 15.6 21.5 16.7 21.5 0.7 0 15.1 -11.4 15.3 -12.3 0.1 -0.2 -3.4 -5.3 -7.9 -11.3 -27.1 -36.6 -34.6 -62.3 -24.4 -84.1 14.8 -31.9 76.3 -51.8 177.8 -57.4 11.6 -0.7 21.5 -0.9 22 -0.5 1.2 1.3 0.7 43.4 -0.6 54.6 -2.3 18.5 -8.7 46.9 -13.2 58.5 l-1.1 3 -3.4 -7.1 c-6.2 -13.5 -14.4 -23.5 -25.5 -31.1 -12.9 -8.8 -24.8 -12.3 -41.6 -12.3 -14.7 0 -19.7 1.1 -32.4 7.2 -9.3 4.5 -11.5 6.1 -19.5 14.2 -7.6 7.6 -9.8 10.6 -13.7 18.6 -6.3 12.9 -8.2 22.1 -7.5 36.4 0.9 19.4 7.6 34.6 21.1 48.2 13.1 13.1 29 20.2 47.6 21.3 l10.4 0.6 -6.9 5.2 c-19.9 14.7 -40.5 23.9 -63.2 28.3 -15.1 2.9 -37.8 2.7 -52.8 -0.4z"/>
  <path d="M678.1 736 c-47.9 -9.6 -90.8 -43.8 -118.2 -94.3 -14.6 -26.8 -24.1 -56 -28.9 -88.2 -2.3 -15.6 -3.7 -47.3 -2.5 -57.9 l0.7 -6.9 33.6 0.6 c80.3 1.6 167.6 7.9 280.7 20.3 17.6 1.9 33.1 3.7 34.4 4 l2.4 0.5 -0.7 13.2 c-1.1 21.8 -6.5 52.8 -11.8 68.1 l-1.4 3.8 -3.9 -6.8 c-5.8 -10.2 -19 -22.9 -29 -28.1 -12.1 -6.3 -20.6 -8.3 -35 -8.3 -21.6 0 -36.8 6.2 -51.5 21 -9.9 9.9 -14.1 16.6 -18.2 28.8 -9.8 29.1 0.6 62.8 24.9 81.1 11.7 8.8 24.9 14 37.7 14.9 l7.9 0.5 -2.9 2.4 c-6.4 5.4 -21.5 14.8 -30.9 19.3 -12.4 5.9 -23.1 9.4 -36.3 12 -13.8 2.7 -37.6 2.6 -51.1 0z"/>
  <path d="M433 666.9 c-3.2 -1.3 -7.8 -5.7 -9.6 -9.1 -2.2 -4.1 -1.8 -12.4 0.8 -16.9 2.6 -4.6 10.2 -8.9 15.8 -8.9 5.4 0 12.1 3.9 14.7 8.6 2.8 4.8 3 13 0.6 18.1 -3.3 7 -15 11.3 -22.3 8.2z"/>
  <path d="M826.5 666.4 c-7 -3.6 -10.5 -9.1 -10.5 -16.4 0 -14.4 15.8 -22.7 28 -14.7 4.3 3 8 9.7 8 14.8 0 4 -2.9 10.7 -5.6 13.1 -5.2 4.6 -14.4 6.1 -19.9 3.2z"/>
  <path d="M861 490.4 c-15.9 -2 -74.5 -8 -111 -11.4 -63.7 -5.8 -127.2 -9.4 -186.2 -10.6 -32.6 -0.7 -32.8 -0.7 -32.3 -2.8 0.3 -1.2 1.4 -6.8 2.6 -12.6 13.6 -67.6 54.8 -126.4 106.4 -151.9 22.3 -11 39.6 -15.1 63.5 -15.1 23.9 0 41.3 4.1 63.5 15.1 15.2 7.5 28.1 16.7 41.3 29.4 30.5 29.3 51.9 67.9 63.3 114 3.1 12.9 6.9 36.3 6.9 43.3 l0 4.2 -3.7 -0.1 c-2.1 -0.1 -8.5 -0.7 -14.3 -1.5z"/>
 </g>
</svg>